<svg width="40" height="40" viewBox="0 0 40 40" fill="none" xmlns="http://www.w3.org/2000/svg">
<path d="M39.5 20C39.5 30.7696 30.7696 39.5 20 39.5C9.23045 39.5 0.5 30.7696 0.5 20C0.5 9.23045 9.23045 0.5 20 0.5C30.7696 0.5 39.5 9.23045 39.5 20Z" fill="white" stroke="#5E0098"/>
<path fill-rule="evenodd" clip-rule="evenodd" d="M22.1579 13.147C21.8677 13.0058 21.245 12.8658 20.4497 12.8755C19.6067 12.8871 18.774 13.0737 18.106 13.6243M22.1579 13.147C22.9075 13.5143 24 14.2364 24 15.688C24 17.2844 23.0759 18.0009 21.4837 19.0959C20.62 19.6898 20.0128 20.3227 19.63 21.0343C19.2438 21.7522 19.125 22.4779 19.125 23.188C19.125 23.7058 19.5447 24.1255 20.0625 24.1255C20.5803 24.1255 21 23.7058 21 23.188C21 22.6963 21.08 22.2968 21.2812 21.9226C21.4859 21.5421 21.8549 21.1162 22.5461 20.6408L22.5821 20.6161C24.092 19.5779 25.875 18.352 25.875 15.688C25.875 13.0715 23.8361 11.8811 22.9818 11.4627L22.981 11.4623L22.9802 11.4619C22.3317 11.1458 21.3857 10.9888 20.426 11.0006L20.4254 11.0006L20.4247 11.0006C19.3451 11.0154 18.0321 11.2554 16.9134 12.1774L16.9134 12.1774C16.0132 12.9195 15.5344 13.7622 15.2825 14.4278C15.1571 14.7594 15.0876 15.0474 15.0491 15.2595C15.0299 15.3658 15.0182 15.4537 15.0112 15.5194C15.0077 15.5523 15.0053 15.5797 15.0037 15.6011C15.0029 15.6118 15.0023 15.6211 15.0019 15.6288C15.0016 15.6326 15.0014 15.6361 15.0013 15.6391L15.0011 15.6435L15.001 15.6454L15.0009 15.6463C15.0009 15.6467 15.0009 15.6472 15.9375 15.688L15.0009 15.6472C14.9783 16.1645 15.3794 16.6021 15.8966 16.6247C16.4106 16.6471 16.846 16.2513 16.8736 15.7388C16.8738 15.7362 16.8744 15.7294 16.8755 15.7189C16.8781 15.6951 16.8835 15.6525 16.894 15.5944C16.9152 15.4777 16.9567 15.3015 17.0362 15.0913C17.1943 14.6735 17.5015 14.1226 18.106 13.6243" fill="#5E0098"/>
<path d="M20.0625 28.25C20.8909 28.25 21.5625 27.5784 21.5625 26.75C21.5625 25.9216 20.8909 25.25 20.0625 25.25C19.2341 25.25 18.5625 25.9216 18.5625 26.75C18.5625 27.5784 19.2341 28.25 20.0625 28.25Z" fill="#5E0098"/>
</svg>
